<svg width="175" height="150" viewBox="0 0 175 150" fill="none" xmlns="http://www.w3.org/2000/svg">
  <mask id="mask0_105_11157" style="mask-type:alpha" maskUnits="userSpaceOnUse" x="0" y="0" width="175" height="150">
    <path d="M0.0966797 32.3335C0.0966797 14.6604 14.4236 0.333496 32.0967 0.333496H142.642C160.315 0.333496 174.642 14.6604 174.642 32.3335V149.608H0.0966797V32.3335Z" fill="white"/>
  </mask>
  <g mask="url(#mask0_105_11157)">
    <path opacity="0.2" fill-rule="evenodd" clip-rule="evenodd" d="M133.346 -33.6152C135.719 -33.6152 137.644 -35.17 137.644 -37.0879C137.644 -39.0058 135.719 -40.5605 133.346 -40.5605C130.972 -40.5605 129.047 -39.0058 129.047 -37.0879C129.047 -35.17 130.972 -33.6152 133.346 -33.6152ZM137.644 -23.1971C137.644 -21.2792 135.719 -19.7245 133.346 -19.7245C130.972 -19.7245 129.047 -21.2792 129.047 -23.1971C129.047 -25.115 130.972 -26.6698 133.346 -26.6698C135.719 -26.6698 137.644 -25.115 137.644 -23.1971ZM38.3789 8.74892C38.3789 10.667 40.3031 12.2216 42.6772 12.2216C45.0513 12.2216 46.9755 10.667 46.9755 8.74892V-5.14172C46.9755 -7.05978 45.0513 -8.61438 42.6772 -8.61438C40.3031 -8.61438 38.3789 -7.05978 38.3789 -5.14172V8.74892ZM115.213 -1.66894C117.587 -1.66894 119.511 -3.2237 119.511 -5.1416C119.511 -7.05949 117.587 -8.61426 115.213 -8.61426C112.839 -8.61426 110.915 -7.05949 110.915 -5.1416C110.915 -3.2237 112.839 -1.66894 115.213 -1.66894ZM133.346 -1.66882C135.719 -1.66882 137.644 -3.22358 137.644 -5.14148C137.644 -7.05937 135.719 -8.61414 133.346 -8.61414C130.972 -8.61414 129.047 -7.05937 129.047 -5.14148C129.047 -3.22358 130.972 -1.66882 133.346 -1.66882ZM137.644 8.7511C137.644 10.669 135.719 12.2238 133.346 12.2238C130.972 12.2238 129.047 10.669 129.047 8.7511C129.047 6.83321 130.972 5.27844 133.346 5.27844C135.719 5.27844 137.644 6.83321 137.644 8.7511ZM129.047 72.643C129.047 74.561 130.971 76.1156 133.346 76.1156C135.72 76.1156 137.644 74.561 137.644 72.643V58.7523C137.644 56.8343 135.72 55.2797 133.346 55.2797C130.971 55.2797 129.047 56.8343 129.047 58.7523V72.643ZM155.778 72.6431C155.778 74.561 153.854 76.1157 151.48 76.1157C149.106 76.1157 147.182 74.561 147.182 72.6431C147.182 70.7252 149.106 69.1704 151.48 69.1704C153.854 69.1704 155.778 70.7252 155.778 72.6431ZM151.48 62.225C153.854 62.225 155.778 60.6702 155.778 58.7523C155.778 56.8344 153.854 55.2797 151.48 55.2797C149.106 55.2797 147.182 56.8344 147.182 58.7523C147.182 60.6702 149.106 62.225 151.48 62.225ZM83.2437 8.7511C83.2437 10.669 81.3193 12.2238 78.9454 12.2238C76.5715 12.2238 74.647 10.669 74.647 8.7511C74.647 6.83321 76.5715 5.27844 78.9454 5.27844C81.3193 5.27844 83.2437 6.83321 83.2437 8.7511ZM78.9454 -1.66882C81.3193 -1.66882 83.2437 -3.22358 83.2437 -5.14148C83.2437 -7.05937 81.3193 -8.61414 78.9454 -8.61414C76.5715 -8.61414 74.647 -7.05937 74.647 -5.14148C74.647 -3.22358 76.5715 -1.66882 78.9454 -1.66882ZM37.9094 136.537C37.9094 138.455 39.8336 140.01 42.2077 140.01C44.5818 140.01 46.506 138.455 46.506 136.537V122.647C46.506 120.729 44.5818 119.174 42.2077 119.174C39.8336 119.174 37.9094 120.729 37.9094 122.647V136.537ZM5.94041 140.01C3.56631 140.01 1.64209 138.455 1.64209 136.537V122.647C1.64209 120.729 3.56631 119.174 5.94041 119.174C8.31452 119.174 10.2387 120.729 10.2387 122.647V136.537C10.2387 138.455 8.31452 140.01 5.94041 140.01ZM64.6399 136.536C64.6399 138.454 62.7154 140.009 60.3415 140.009C57.9677 140.009 56.0432 138.454 56.0432 136.536C56.0432 134.618 57.9677 133.064 60.3415 133.064C62.7154 133.064 64.6399 134.618 64.6399 136.536ZM60.3415 126.119C62.7154 126.119 64.6399 124.565 64.6399 122.647C64.6399 120.729 62.7154 119.174 60.3415 119.174C57.9677 119.174 56.0432 120.729 56.0432 122.647C56.0432 124.565 57.9677 126.119 60.3415 126.119ZM28.3717 136.536C28.3717 138.454 26.4473 140.009 24.0734 140.009C21.6995 140.009 19.775 138.454 19.775 136.536C19.775 134.618 21.6995 133.064 24.0734 133.064C26.4473 133.064 28.3717 134.618 28.3717 136.536ZM24.0747 126.119C26.4486 126.119 28.3731 124.565 28.3731 122.647C28.3731 120.729 26.4486 119.174 24.0747 119.174C21.7008 119.174 19.7764 120.729 19.7764 122.647C19.7764 124.565 21.7008 126.119 24.0747 126.119ZM173.911 72.6431C173.911 74.561 171.986 76.1157 169.612 76.1157C167.239 76.1157 165.314 74.561 165.314 72.6431C165.314 70.7252 167.239 69.1704 169.612 69.1704C171.986 69.1704 173.911 70.7252 173.911 72.6431ZM169.612 62.225C171.986 62.225 173.911 60.6702 173.911 58.7523C173.911 56.8344 171.986 55.2797 169.612 55.2797C167.239 55.2797 165.314 56.8344 165.314 58.7523C165.314 60.6702 167.239 62.225 169.612 62.225ZM155.778 8.7511C155.778 10.669 153.854 12.2238 151.48 12.2238C149.106 12.2238 147.182 10.669 147.182 8.7511C147.182 6.83321 149.106 5.27844 151.48 5.27844C153.854 5.27844 155.778 6.83321 155.778 8.7511ZM151.48 -1.66882C153.854 -1.66882 155.778 -3.22358 155.778 -5.14148C155.778 -7.05937 153.854 -8.61414 151.48 -8.61414C149.106 -8.61414 147.182 -7.05937 147.182 -5.14148C147.182 -3.22358 149.106 -1.66882 151.48 -1.66882ZM101.377 8.7511C101.377 10.669 99.4522 12.2238 97.0783 12.2238C94.7044 12.2238 92.78 10.669 92.78 8.7511C92.78 6.83321 94.7044 5.27844 97.0783 5.27844C99.4522 5.27844 101.377 6.83321 101.377 8.7511ZM97.0783 -1.66882C99.4522 -1.66882 101.377 -3.22358 101.377 -5.14148C101.377 -7.05937 99.4522 -8.61414 97.0783 -8.61414C94.7044 -8.61414 92.78 -7.05937 92.78 -5.14148C92.78 -3.22358 94.7044 -1.66882 97.0783 -1.66882ZM192.045 72.6431C192.045 74.561 190.12 76.1157 187.746 76.1157C185.372 76.1157 183.448 74.561 183.448 72.6431C183.448 70.7252 185.372 69.1704 187.746 69.1704C190.12 69.1704 192.045 70.7252 192.045 72.6431ZM187.746 62.225C190.12 62.225 192.045 60.6702 192.045 58.7523C192.045 56.8344 190.12 55.2797 187.746 55.2797C185.372 55.2797 183.448 56.8344 183.448 58.7523C183.448 60.6702 185.372 62.225 187.746 62.225ZM173.911 8.7511C173.911 10.669 171.986 12.2238 169.612 12.2238C167.239 12.2238 165.314 10.669 165.314 8.7511C165.314 6.83321 167.239 5.27844 169.612 5.27844C171.986 5.27844 173.911 6.83321 173.911 8.7511ZM169.612 -1.66882C171.986 -1.66882 173.911 -3.22358 173.911 -5.14148C173.911 -7.05937 171.986 -8.61414 169.612 -8.61414C167.239 -8.61414 165.314 -7.05937 165.314 -5.14148C165.314 -3.22358 167.239 -1.66882 169.612 -1.66882ZM119.511 8.75098C119.511 10.6689 117.587 12.2236 115.213 12.2236C112.839 12.2236 110.915 10.6689 110.915 8.75098C110.915 6.83308 112.839 5.27832 115.213 5.27832C117.587 5.27832 119.511 6.83308 119.511 8.75098ZM74.1762 136.537C74.1762 138.455 76.1004 140.01 78.4745 140.01C80.8486 140.01 82.7728 138.455 82.7728 136.537V122.647C82.7728 120.729 80.8486 119.174 78.4745 119.174C76.1004 119.174 74.1762 120.729 74.1762 122.647V136.537ZM96.6084 140.009C98.9822 140.009 100.907 138.454 100.907 136.536C100.907 134.618 98.9822 133.064 96.6084 133.064C94.2345 133.064 92.31 134.618 92.31 136.536C92.31 138.454 94.2345 140.009 96.6084 140.009ZM100.907 122.647C100.907 124.565 98.9822 126.119 96.6084 126.119C94.2345 126.119 92.31 124.565 92.31 122.647C92.31 120.729 94.2345 119.174 96.6084 119.174C98.9822 119.174 100.907 120.729 100.907 122.647ZM187.277 140.01C184.903 140.01 182.978 138.455 182.978 136.537V122.647C182.978 120.729 184.903 119.174 187.277 119.174C189.651 119.174 191.575 120.729 191.575 122.647V136.537C191.575 138.455 189.651 140.01 187.277 140.01ZM146.712 136.537C146.712 138.455 148.636 140.01 151.01 140.01C153.384 140.01 155.308 138.455 155.308 136.537V122.647C155.308 120.729 153.384 119.174 151.01 119.174C148.636 119.174 146.712 120.729 146.712 122.647V136.537ZM169.143 140.009C171.517 140.009 173.441 138.454 173.441 136.536C173.441 134.618 171.517 133.064 169.143 133.064C166.769 133.064 164.845 134.618 164.845 136.536C164.845 138.454 166.769 140.009 169.143 140.009ZM173.441 122.647C173.441 124.565 171.517 126.119 169.143 126.119C166.769 126.119 164.845 124.565 164.845 122.647C164.845 120.729 166.769 119.174 169.143 119.174C171.517 119.174 173.441 120.729 173.441 122.647ZM114.741 140.009C117.115 140.009 119.04 138.454 119.04 136.536C119.04 134.618 117.115 133.064 114.741 133.064C112.367 133.064 110.443 134.618 110.443 136.536C110.443 138.454 112.367 140.009 114.741 140.009ZM119.04 122.647C119.04 124.565 117.115 126.119 114.741 126.119C112.367 126.119 110.443 124.565 110.443 122.647C110.443 120.729 112.367 119.174 114.741 119.174C117.115 119.174 119.04 120.729 119.04 122.647ZM132.876 140.009C135.25 140.009 137.174 138.454 137.174 136.536C137.174 134.618 135.25 133.064 132.876 133.064C130.502 133.064 128.577 134.618 128.577 136.536C128.577 138.454 130.502 140.009 132.876 140.009ZM137.174 122.647C137.174 124.565 135.25 126.119 132.876 126.119C130.502 126.119 128.577 124.565 128.577 122.647C128.577 120.729 130.502 119.174 132.876 119.174C135.25 119.174 137.174 120.729 137.174 122.647ZM60.811 76.1156C58.4369 76.1156 56.5127 74.561 56.5127 72.643V58.7523C56.5127 56.8343 58.4369 55.2797 60.811 55.2797C63.1852 55.2797 65.1094 56.8343 65.1094 58.7523V72.643C65.1094 74.561 63.1852 76.1156 60.811 76.1156ZM74.647 72.643C74.647 74.561 76.5713 76.1156 78.9454 76.1156C81.3195 76.1156 83.2437 74.561 83.2437 72.643V58.7523C83.2437 56.8343 81.3195 55.2797 78.9454 55.2797C76.5713 55.2797 74.647 56.8343 74.647 58.7523V72.643ZM97.0783 76.1156C94.7042 76.1156 92.78 74.561 92.78 72.643V58.7523C92.78 56.8343 94.7042 55.2797 97.0783 55.2797C99.4524 55.2797 101.377 56.8343 101.377 58.7523V72.643C101.377 74.561 99.4524 76.1156 97.0783 76.1156ZM20.2464 8.74917C20.2464 10.6672 22.1706 12.2218 24.5447 12.2218C26.9188 12.2218 28.843 10.6672 28.843 8.74917V-5.14148C28.843 -7.05954 26.9188 -8.61414 24.5447 -8.61414C22.1706 -8.61414 20.2464 -7.05954 20.2464 -5.14148V8.74917ZM24.5447 76.1156C22.1706 76.1156 20.2464 74.561 20.2464 72.643V58.7523C20.2464 56.8343 22.1706 55.2797 24.5447 55.2797C26.9188 55.2797 28.843 56.8343 28.843 58.7523V72.643C28.843 74.561 26.9188 76.1156 24.5447 76.1156ZM60.811 12.2218C58.4369 12.2218 56.5127 10.6672 56.5127 8.74917V-5.14148C56.5127 -7.05954 58.4369 -8.61414 60.811 -8.61414C63.1852 -8.61414 65.1094 -7.05954 65.1094 -5.14148V8.74917C65.1094 10.6672 63.1852 12.2218 60.811 12.2218ZM46.9755 72.6434C46.9755 74.5613 45.0511 76.1161 42.6772 76.1161C40.3033 76.1161 38.3789 74.5613 38.3789 72.6434C38.3789 70.7255 40.3033 69.1708 42.6772 69.1708C45.0511 69.1708 46.9755 70.7255 46.9755 72.6434ZM42.6772 62.225C45.0511 62.225 46.9755 60.6702 46.9755 58.7523C46.9755 56.8344 45.0511 55.2797 42.6772 55.2797C40.3033 55.2797 38.3789 56.8344 38.3789 58.7523C38.3789 60.6702 40.3033 62.225 42.6772 62.225ZM183.448 8.74917C183.448 10.6672 185.372 12.2218 187.746 12.2218C190.12 12.2218 192.045 10.6672 192.045 8.74917V-5.14148C192.045 -7.05954 190.12 -8.61414 187.746 -8.61414C185.372 -8.61414 183.448 -7.05954 183.448 -5.14148V8.74917ZM115.213 76.1157C117.587 76.1157 119.511 74.561 119.511 72.6431C119.511 70.7252 117.587 69.1704 115.213 69.1704C112.839 69.1704 110.915 70.7252 110.915 72.6431C110.915 74.561 112.839 76.1157 115.213 76.1157ZM119.511 58.7524C119.511 60.6703 117.587 62.2251 115.213 62.2251C112.839 62.2251 110.915 60.6703 110.915 58.7524C110.915 56.8345 112.839 55.2798 115.213 55.2798C117.587 55.2798 119.511 56.8345 119.511 58.7524ZM6.41037 76.1157C8.78426 76.1157 10.7087 74.561 10.7087 72.6431C10.7087 70.7252 8.78426 69.1704 6.41037 69.1704C4.03647 69.1704 2.11205 70.7252 2.11205 72.6431C2.11205 74.561 4.03647 76.1157 6.41037 76.1157ZM10.7087 58.7523C10.7087 60.6702 8.78426 62.225 6.41037 62.225C4.03647 62.225 2.11205 60.6702 2.11205 58.7523C2.11205 56.8344 4.03647 55.2797 6.41037 55.2797C8.78426 55.2797 10.7087 56.8344 10.7087 58.7523ZM6.41037 12.2238C8.78426 12.2238 10.7087 10.669 10.7087 8.7511C10.7087 6.83321 8.78426 5.27844 6.41037 5.27844C4.03647 5.27844 2.11205 6.83321 2.11205 8.7511C2.11205 10.669 4.03647 12.2238 6.41037 12.2238ZM10.7087 -5.14148C10.7087 -3.22358 8.78426 -1.66882 6.41037 -1.66882C4.03647 -1.66882 2.11205 -3.22358 2.11205 -5.14148C2.11205 -7.05937 4.03647 -8.61414 6.41037 -8.61414C8.78426 -8.61414 10.7087 -7.05937 10.7087 -5.14148ZM133.346 44.1697C130.971 44.1697 129.047 42.6151 129.047 40.697V26.8064C129.047 24.8883 130.971 23.3337 133.346 23.3337C135.72 23.3337 137.644 24.8883 137.644 26.8064V40.697C137.644 42.6151 135.72 44.1697 133.346 44.1697ZM155.778 40.6953C155.778 42.6132 153.854 44.168 151.48 44.168C149.106 44.168 147.182 42.6132 147.182 40.6953C147.182 38.7774 149.106 37.2227 151.48 37.2227C153.854 37.2227 155.778 38.7774 155.778 40.6953ZM151.48 30.2791C153.854 30.2791 155.778 28.7243 155.778 26.8064C155.778 24.8885 153.854 23.3337 151.48 23.3337C149.106 23.3337 147.182 24.8885 147.182 26.8064C147.182 28.7243 149.106 30.2791 151.48 30.2791ZM83.2437 -23.1971C83.2437 -21.2792 81.3193 -19.7245 78.9454 -19.7245C76.5715 -19.7245 74.647 -21.2792 74.647 -23.1971C74.647 -25.115 76.5715 -26.6698 78.9454 -26.6698C81.3193 -26.6698 83.2437 -25.115 83.2437 -23.1971ZM78.9454 -33.6152C81.3193 -33.6152 83.2437 -35.17 83.2437 -37.0879C83.2437 -39.0058 81.3193 -40.5605 78.9454 -40.5605C76.5715 -40.5605 74.647 -39.0058 74.647 -37.0879C74.647 -35.17 76.5715 -33.6152 78.9454 -33.6152ZM56.0432 104.59C56.0432 106.508 57.9674 108.063 60.3415 108.063C62.7157 108.063 64.6399 106.508 64.6399 104.59V90.6996C64.6399 88.7815 62.7157 87.2269 60.3415 87.2269C57.9674 87.2269 56.0432 88.7815 56.0432 90.6996V104.59ZM5.94041 108.063C3.56631 108.063 1.64209 106.508 1.64209 104.59V90.6996C1.64209 88.7816 3.56631 87.227 5.94041 87.227C8.31452 87.227 10.2387 88.7816 10.2387 90.6996V104.59C10.2387 106.508 8.31452 108.063 5.94041 108.063ZM28.3717 104.591C28.3717 106.509 26.4473 108.063 24.0734 108.063C21.6995 108.063 19.775 106.509 19.775 104.591C19.775 102.673 21.6995 101.118 24.0734 101.118C26.4473 101.118 28.3717 102.673 28.3717 104.591ZM24.0747 94.1723C26.4486 94.1723 28.3731 92.6175 28.3731 90.6996C28.3731 88.7817 26.4486 87.2269 24.0747 87.2269C21.7008 87.2269 19.7764 88.7817 19.7764 90.6996C19.7764 92.6175 21.7008 94.1723 24.0747 94.1723ZM46.506 104.591C46.506 106.509 44.5816 108.063 42.2077 108.063C39.8338 108.063 37.9094 106.509 37.9094 104.591C37.9094 102.673 39.8338 101.118 42.2077 101.118C44.5816 101.118 46.506 102.673 46.506 104.591ZM42.2077 94.1723C44.5816 94.1723 46.506 92.6175 46.506 90.6996C46.506 88.7817 44.5816 87.2269 42.2077 87.2269C39.8338 87.2269 37.9094 88.7817 37.9094 90.6996C37.9094 92.6175 39.8338 94.1723 42.2077 94.1723ZM173.911 40.6953C173.911 42.6132 171.986 44.168 169.612 44.168C167.239 44.168 165.314 42.6132 165.314 40.6953C165.314 38.7774 167.239 37.2227 169.612 37.2227C171.986 37.2227 173.911 38.7774 173.911 40.6953ZM169.612 30.2791C171.986 30.2791 173.911 28.7243 173.911 26.8064C173.911 24.8885 171.986 23.3337 169.612 23.3337C167.239 23.3337 165.314 24.8885 165.314 26.8064C165.314 28.7243 167.239 30.2791 169.612 30.2791ZM56.5127 40.4655C56.5127 42.358 58.4369 43.8919 60.811 43.8919C63.1852 43.8919 65.1094 42.358 65.1094 40.4655V26.7601C65.1094 24.8676 63.1852 23.3337 60.811 23.3337C58.4369 23.3337 56.5127 24.8676 56.5127 26.7601V40.4655ZM151.48 -19.7245C153.854 -19.7245 155.778 -21.2792 155.778 -23.1971C155.778 -25.115 153.854 -26.6698 151.48 -26.6698C149.106 -26.6698 147.182 -25.115 147.182 -23.1971C147.182 -21.2792 149.106 -19.7245 151.48 -19.7245ZM155.778 -37.0879C155.778 -35.17 153.854 -33.6152 151.48 -33.6152C149.106 -33.6152 147.182 -35.17 147.182 -37.0879C147.182 -39.0058 149.106 -40.5605 151.48 -40.5605C153.854 -40.5605 155.778 -39.0058 155.778 -37.0879ZM97.0783 -19.7245C99.4522 -19.7245 101.377 -21.2792 101.377 -23.1971C101.377 -25.115 99.4522 -26.6698 97.0783 -26.6698C94.7044 -26.6698 92.78 -25.115 92.78 -23.1971C92.78 -21.2792 94.7044 -19.7245 97.0783 -19.7245ZM101.377 -37.0879C101.377 -35.17 99.4522 -33.6152 97.0783 -33.6152C94.7044 -33.6152 92.78 -35.17 92.78 -37.0879C92.78 -39.0058 94.7044 -40.5605 97.0783 -40.5605C99.4522 -40.5605 101.377 -39.0058 101.377 -37.0879ZM97.0783 44.1697C94.7042 44.1697 92.78 42.6151 92.78 40.697V26.8064C92.78 24.8883 94.7042 23.3337 97.0783 23.3337C99.4524 23.3337 101.377 24.8883 101.377 26.8064V40.697C101.377 42.6151 99.4524 44.1697 97.0783 44.1697ZM83.2437 40.6953C83.2437 42.6132 81.3193 44.168 78.9454 44.168C76.5715 44.168 74.647 42.6132 74.647 40.6953C74.647 38.7774 76.5715 37.2227 78.9454 37.2227C81.3193 37.2227 83.2437 38.7774 83.2437 40.6953ZM78.9454 30.2791C81.3193 30.2791 83.2437 28.7243 83.2437 26.8064C83.2437 24.8885 81.3193 23.3337 78.9454 23.3337C76.5715 23.3337 74.647 24.8885 74.647 26.8064C74.647 28.7243 76.5715 30.2791 78.9454 30.2791ZM192.045 40.6953C192.045 42.6132 190.12 44.168 187.746 44.168C185.372 44.168 183.448 42.6132 183.448 40.6953C183.448 38.7774 185.372 37.2227 187.746 37.2227C190.12 37.2227 192.045 38.7774 192.045 40.6953ZM187.746 30.2791C190.12 30.2791 192.045 28.7243 192.045 26.8064C192.045 24.8885 190.12 23.3337 187.746 23.3337C185.372 23.3337 183.448 24.8885 183.448 26.8064C183.448 28.7243 185.372 30.2791 187.746 30.2791ZM28.843 40.6953C28.843 42.6132 26.9186 44.168 24.5447 44.168C22.1708 44.168 20.2464 42.6132 20.2464 40.6953C20.2464 38.7774 22.1708 37.2227 24.5447 37.2227C26.9186 37.2227 28.843 38.7774 28.843 40.6953ZM24.5447 30.2791C26.9186 30.2791 28.843 28.7243 28.843 26.8064C28.843 24.8885 26.9186 23.3337 24.5447 23.3337C22.1708 23.3337 20.2464 24.8885 20.2464 26.8064C20.2464 28.7243 22.1708 30.2791 24.5447 30.2791ZM46.9755 40.6951C46.9755 42.613 45.0511 44.1677 42.6772 44.1677C40.3033 44.1677 38.3789 42.613 38.3789 40.6951C38.3789 38.7772 40.3033 37.2224 42.6772 37.2224C45.0511 37.2224 46.9755 38.7772 46.9755 40.6951ZM42.6772 30.2794C45.0511 30.2794 46.9755 28.7247 46.9755 26.8068C46.9755 24.8889 45.0511 23.3341 42.6772 23.3341C40.3033 23.3341 38.3789 24.8889 38.3789 26.8068C38.3789 28.7247 40.3033 30.2794 42.6772 30.2794ZM173.911 -23.1971C173.911 -21.2792 171.986 -19.7245 169.612 -19.7245C167.239 -19.7245 165.314 -21.2792 165.314 -23.1971C165.314 -25.115 167.239 -26.6698 169.612 -26.6698C171.986 -26.6698 173.911 -25.115 173.911 -23.1971ZM169.612 -33.6152C171.986 -33.6152 173.911 -35.17 173.911 -37.0879C173.911 -39.0058 171.986 -40.5605 169.612 -40.5605C167.239 -40.5605 165.314 -39.0058 165.314 -37.0879C165.314 -35.17 167.239 -33.6152 169.612 -33.6152ZM119.511 -23.1973C119.511 -21.2794 117.587 -19.7246 115.213 -19.7246C112.839 -19.7246 110.915 -21.2794 110.915 -23.1973C110.915 -25.1152 112.839 -26.6699 115.213 -26.6699C117.587 -26.6699 119.511 -25.1152 119.511 -23.1973ZM115.213 -33.6152C117.587 -33.6152 119.511 -35.17 119.511 -37.0879C119.511 -39.0058 117.587 -40.5605 115.213 -40.5605C112.839 -40.5605 110.915 -39.0058 110.915 -37.0879C110.915 -35.17 112.839 -33.6152 115.213 -33.6152ZM20.2464 -23.4288C20.2464 -21.5363 22.1706 -20.0024 24.5447 -20.0024C26.9188 -20.0024 28.843 -21.5363 28.843 -23.4288V-37.1342C28.843 -39.0267 26.9188 -40.5605 24.5447 -40.5605C22.1706 -40.5605 20.2464 -39.0267 20.2464 -37.1342V-23.4288ZM187.746 -19.7246C185.372 -19.7246 183.448 -21.2792 183.448 -23.1972V-37.0879C183.448 -39.006 185.372 -40.5605 187.746 -40.5605C190.12 -40.5605 192.045 -39.006 192.045 -37.0879V-23.1972C192.045 -21.2792 190.12 -19.7246 187.746 -19.7246ZM110.915 40.697C110.915 42.6151 112.839 44.1697 115.213 44.1697C117.587 44.1697 119.511 42.6151 119.511 40.697V26.8064C119.511 24.8883 117.587 23.3337 115.213 23.3337C112.839 23.3337 110.915 24.8883 110.915 26.8064V40.697ZM60.811 -19.7246C58.4369 -19.7246 56.5127 -21.2792 56.5127 -23.1972V-37.0879C56.5127 -39.006 58.4369 -40.5605 60.811 -40.5605C63.1852 -40.5605 65.1094 -39.006 65.1094 -37.0879V-23.1972C65.1094 -21.2792 63.1852 -19.7246 60.811 -19.7246ZM46.9764 -23.1971C46.9764 -21.2792 45.052 -19.7245 42.6781 -19.7245C40.3042 -19.7245 38.3798 -21.2792 38.3798 -23.1971C38.3798 -25.115 40.3042 -26.6698 42.6781 -26.6698C45.052 -26.6698 46.9764 -25.115 46.9764 -23.1971ZM42.6772 -33.6152C45.0511 -33.6152 46.9755 -35.17 46.9755 -37.0879C46.9755 -39.0058 45.0511 -40.5605 42.6772 -40.5605C40.3033 -40.5605 38.3789 -39.0058 38.3789 -37.0879C38.3789 -35.17 40.3033 -33.6152 42.6772 -33.6152ZM10.7087 40.6953C10.7087 42.6132 8.78426 44.168 6.41037 44.168C4.03647 44.168 2.11205 42.6132 2.11205 40.6953C2.11205 38.7774 4.03647 37.2227 6.41037 37.2227C8.78426 37.2227 10.7087 38.7774 10.7087 40.6953ZM6.41037 30.2791C8.78426 30.2791 10.7087 28.7243 10.7087 26.8064C10.7087 24.8885 8.78426 23.3337 6.41037 23.3337C4.03647 23.3337 2.11205 24.8885 2.11205 26.8064C2.11205 28.7243 4.03647 30.2791 6.41037 30.2791ZM10.7087 -23.1971C10.7087 -21.2792 8.78426 -19.7245 6.41037 -19.7245C4.03647 -19.7245 2.11205 -21.2792 2.11205 -23.1971C2.11205 -25.115 4.03647 -26.6698 6.41037 -26.6698C8.78426 -26.6698 10.7087 -25.115 10.7087 -23.1971ZM6.41037 -33.6152C8.78426 -33.6152 10.7087 -35.17 10.7087 -37.0879C10.7087 -39.0058 8.78426 -40.5605 6.41037 -40.5605C4.03647 -40.5605 2.11205 -39.0058 2.11205 -37.0879C2.11205 -35.17 4.03647 -33.6152 6.41037 -33.6152ZM146.712 104.59C146.712 106.508 148.636 108.063 151.01 108.063C153.384 108.063 155.308 106.508 155.308 104.59V90.6996C155.308 88.7815 153.384 87.2269 151.01 87.2269C148.636 87.2269 146.712 88.7815 146.712 90.6996V104.59ZM169.143 108.063C166.769 108.063 164.845 106.508 164.845 104.59V90.6996C164.845 88.7815 166.769 87.2269 169.143 87.2269C171.517 87.2269 173.441 88.7815 173.441 90.6996V104.59C173.441 106.508 171.517 108.063 169.143 108.063ZM182.978 104.59C182.978 106.508 184.903 108.063 187.277 108.063C189.651 108.063 191.575 106.508 191.575 104.59V90.6996C191.575 88.7815 189.651 87.2269 187.277 87.2269C184.903 87.2269 182.978 88.7815 182.978 90.6996V104.59ZM78.4745 108.063C76.1004 108.063 74.1762 106.508 74.1762 104.59V90.6996C74.1762 88.7815 76.1004 87.2269 78.4745 87.2269C80.8486 87.2269 82.7728 88.7815 82.7728 90.6996V104.59C82.7728 106.508 80.8486 108.063 78.4745 108.063ZM110.443 104.59C110.443 106.508 112.367 108.063 114.741 108.063C117.115 108.063 119.04 106.508 119.04 104.59V90.6996C119.04 88.7815 117.115 87.2269 114.741 87.2269C112.367 87.2269 110.443 88.7815 110.443 90.6996V104.59ZM96.6084 108.063C98.9822 108.063 100.907 106.509 100.907 104.591C100.907 102.673 98.9822 101.118 96.6084 101.118C94.2345 101.118 92.31 102.673 92.31 104.591C92.31 106.509 94.2345 108.063 96.6084 108.063ZM100.907 90.6996C100.907 92.6175 98.9822 94.1723 96.6084 94.1723C94.2345 94.1723 92.31 92.6175 92.31 90.6996C92.31 88.7817 94.2345 87.2269 96.6084 87.2269C98.9822 87.2269 100.907 88.7817 100.907 90.6996ZM132.876 108.063C135.25 108.063 137.174 106.509 137.174 104.591C137.174 102.673 135.25 101.118 132.876 101.118C130.502 101.118 128.577 102.673 128.577 104.591C128.577 106.509 130.502 108.063 132.876 108.063ZM137.174 90.6996C137.174 92.6175 135.25 94.1723 132.876 94.1723C130.502 94.1723 128.577 92.6175 128.577 90.6996C128.577 88.7817 130.502 87.2269 132.876 87.2269C135.25 87.2269 137.174 88.7817 137.174 90.6996Z" fill="url(#paint0_radial_105_11157)"/>
  </g>
  <defs>
    <radialGradient id="paint0_radial_105_11157" cx="0" cy="0" r="1" gradientUnits="userSpaceOnUse" gradientTransform="translate(95.623 50.9614) rotate(89.2148) scale(89.057 100.21)">
      <stop stop-color="white"/>
      <stop offset="1" stop-color="#6E798D" stop-opacity="0"/>
    </radialGradient>
  </defs>
</svg>
